<svg xmlns="http://www.w3.org/2000/svg" width="52" height="52" fill="none" viewBox="0 0 52 52">
  <path fill="#fff" d="M5.777 34.484H3.574l6.211-16.968h2.227l6.21 16.968h-2.226l-1.7-4.78h-6.82l-1.699 4.78Zm2.344-6.632h5.531l-2.695-7.594h-.14L8.12 27.852Zm12.102 6.632V17.516h5.953c3.562 0 5.238 2.004 5.226 4.5.012 2.18-1.289 3.152-2.765 3.562v.164c1.582.094 3.433 1.547 3.445 4.242-.012 2.543-1.688 4.5-5.695 4.5h-6.164Zm2.109-1.875h4.031c2.66 0 3.692-1.172 3.68-2.648.012-1.723-1.383-3.188-3.563-3.188h-4.148v5.836Zm0-7.664h3.773c1.84.012 3.282-1.136 3.282-2.906 0-1.477-.996-2.648-3.211-2.648h-3.844v5.554Zm23.984-2.085c-.492-2.344-2.496-3.61-4.734-3.61-3.07 0-5.45 2.367-5.46 6.75.01 4.371 2.39 6.738 5.46 6.75 2.238-.012 4.23-1.266 4.734-3.586h2.11c-.61 3.469-3.399 5.555-6.844 5.555-4.36 0-7.512-3.352-7.5-8.719-.012-5.367 3.14-8.719 7.5-8.719 3.434 0 6.211 2.051 6.844 5.578h-2.11Z"/>
</svg>
